<?xml version="1.0" encoding="UTF-8"?>
<svg width="174px" height="54px" viewBox="0 0 174 54" version="1.1" xmlns="http://www.w3.org/2000/svg" xmlns:xlink="http://www.w3.org/1999/xlink">
    <!-- Generator: Sketch 52.6 (67491) - http://www.bohemiancoding.com/sketch -->
    <title>Group 29</title>
    <desc>Created with Sketch.</desc>
    <defs>
        <polygon id="path-1" points="0.0363818182 0.0726923077 11.9551558 0.0726923077 11.9551558 17.0003706 0.0363818182 17.0003706"></polygon>
        <polygon id="path-3" points="0 0.165587413 53.6652909 0.165587413 53.6652909 53.973 0 53.973"></polygon>
        <path d="M19.2175804,0.165776224 C8.60412587,0.165776224 0,8.7699021 0,19.3833566 L0,34.7552308 C0,45.3690629 8.60412587,53.9728112 19.2175804,53.9728112 L34.5894545,53.9728112 C45.2036643,53.9728112 53.8074126,45.3690629 53.8074126,34.7552308 L53.8074126,19.3833566 C53.8074126,8.7699021 45.2036643,0.165776224 34.5894545,0.165776224 L19.2175804,0.165776224 Z" id="path-5"></path>
        <path d="M19.2175804,0.165776224 C8.60412587,0.165776224 0,8.7699021 0,19.3833566 L0,34.7552308 C0,45.3690629 8.60412587,53.9728112 19.2175804,53.9728112 L34.5894545,53.9728112 C45.2036643,53.9728112 53.8074126,45.3690629 53.8074126,34.7552308 L53.8074126,19.3833566 C53.8074126,8.7699021 45.2036643,0.165776224 34.5894545,0.165776224 L19.2175804,0.165776224 Z" id="path-7"></path>
    </defs>
    <g id="Page-1" stroke="none" stroke-width="1" fill="none" fill-rule="evenodd">
        <g id="Add-Turfs--Copy-3" transform="translate(-153.000000, -1959.000000)">
            <g id="Group-10-Copy" transform="translate(-1.000000, 1839.000000)">
                <g id="Group-29" transform="translate(154.000000, 120.000000)">
                    <g id="Group-15">
                        <path d="M70.3472961,19.2004741 L82.780387,19.2004741 C83.2571922,19.2004741 83.6078286,19.2563622 83.8315429,19.3685161 C84.0548805,19.4806699 84.2040234,19.656642 84.2785948,19.8956769 C84.3531662,20.1347119 84.3904519,20.4488937 84.3904519,20.8370895 C84.3904519,21.2260406 84.3531662,21.5360685 84.2785948,21.767551 C84.2040234,21.9994112 84.0774779,22.1599007 83.8982052,22.2493972 C83.630426,22.3842084 83.2500364,22.4514252 82.7581662,22.4514252 L78.4868805,22.4514252 L78.4868805,33.7291175 C78.4868805,34.0731315 78.4759584,34.3272713 78.453361,34.4911594 C78.4311403,34.6561804 78.3641013,34.8468797 78.2522442,35.0632573 C78.140387,35.2800126 77.9426597,35.4329497 77.659439,35.5228238 C77.3762182,35.6123203 77.003361,35.6572573 76.5412442,35.6572573 C76.0795039,35.6572573 75.7100364,35.6123203 75.4347247,35.5228238 C75.1582831,35.4329497 74.9650753,35.2800126 74.8532182,35.0632573 C74.741361,34.8468797 74.6743221,34.6524042 74.6521013,34.4802084 C74.6295039,34.3087678 74.6185818,34.0504741 74.6185818,33.7068378 L74.6185818,22.4514252 L70.3246987,22.4514252 C69.8478935,22.4514252 69.4976338,22.3955371 69.2739195,22.2833832 C69.0505818,22.1712294 68.9010623,21.995635 68.8268675,21.7566 C68.7522961,21.517565 68.7150104,21.2037608 68.7150104,20.8144322 C68.7150104,20.4262364 68.7522961,20.1162084 68.8268675,19.8843483 C68.9010623,19.6524881 69.0279844,19.491621 69.2072571,19.4021245 C69.475413,19.2676909 69.855426,19.2004741 70.3472961,19.2004741" id="Fill-1" fill="#FFFFFF"></path>
                        <path d="M104.358873,19.8281203 C104.508016,19.5890853 104.724197,19.4248196 105.007795,19.3349455 C105.290639,19.2450713 105.644665,19.2005119 106.069873,19.2005119 C106.494704,19.2005119 106.833288,19.2378965 107.087132,19.3126657 C107.3406,19.387435 107.534561,19.4769315 107.668639,19.5815329 C107.802717,19.6861343 107.899509,19.8432252 107.959392,20.052428 C108.048652,20.3069455 108.09347,20.6951413 108.09347,21.2185259 L108.09347,27.9892951 C108.09347,29.962372 107.481834,31.7560783 106.259691,33.370414 C105.663496,34.1328336 104.895938,34.7494909 103.956639,35.2200084 C103.01734,35.6909035 101.977483,35.9265399 100.837068,35.9265399 C99.6966519,35.9265399 98.6601844,35.6871273 97.7287948,35.2086797 C96.7970286,34.7306098 96.0403922,34.1030014 95.4592623,33.3254769 C94.2518078,31.741351 93.6480805,29.9476448 93.6480805,27.944358 L93.6480805,21.1958685 C93.6480805,20.8371273 93.6590026,20.5720364 93.6812234,20.4002182 C93.7038208,20.2284 93.7742494,20.0297706 93.8940156,19.8054629 C94.0130286,19.5815329 94.2141455,19.4248196 94.4973662,19.3349455 C94.780587,19.2450713 95.1606,19.2005119 95.6381584,19.2005119 C96.1149636,19.2005119 96.4949766,19.2450713 96.778574,19.3349455 C97.0614182,19.4248196 97.2553792,19.5815329 97.3600805,19.8054629 C97.5389766,20.1498545 97.6282364,20.6207497 97.6282364,21.2185259 L97.6282364,27.944358 C97.6282364,28.8563161 97.8519506,29.7233371 98.2990026,30.545421 C98.5227169,30.9638266 98.8582883,31.3002881 99.3053403,31.554428 C99.7527688,31.8089455 100.281548,31.935449 100.893184,31.935449 C101.981249,31.935449 102.794003,31.5317706 103.330691,30.724414 C103.867003,29.9178126 104.135158,28.9835748 104.135158,27.9220783 L104.135158,21.061435 C104.135158,20.478386 104.20973,20.0675329 104.358873,19.8281203" id="Fill-3" fill="#FFFFFF"></path>
                        <path d="M121.86783,27.1596965 L124.730544,27.1596965 C125.162531,27.1596965 125.594895,26.9954308 126.027258,26.6665217 C126.459245,26.3379902 126.675804,25.8448154 126.675804,25.1866196 C126.675804,24.529179 126.459245,24.032228 126.027258,23.6957664 C125.594895,23.3596825 125.147466,23.1912629 124.685349,23.1912629 L121.86783,23.1912629 L121.86783,27.1596965 Z M130.454843,32.8772769 C130.678557,33.4150112 130.790038,33.8043399 130.790038,34.0429972 C130.790038,34.6109413 130.327921,35.0893888 129.403687,35.4779622 C128.926505,35.687165 128.543103,35.7917664 128.251973,35.7917664 C127.961596,35.7917664 127.722817,35.7207734 127.536765,35.5787874 C127.34996,35.4368014 127.212116,35.2910392 127.122856,35.1418783 C126.973713,34.8579063 126.392583,33.5048853 125.378713,31.0835706 L124.685349,31.1285077 L121.86783,31.1285077 L121.86783,33.6619762 C121.86783,34.0059902 121.856908,34.2635287 121.83431,34.4353469 C121.81209,34.6075427 121.740908,34.8054168 121.622271,35.0297245 C121.412869,35.4330252 120.831739,35.6346755 119.877752,35.6346755 C118.834129,35.6346755 118.222869,35.3586336 118.044349,34.8054168 C117.954713,34.5512769 117.909895,34.1627035 117.909895,33.6393189 L117.909895,21.1959063 C117.909895,20.8522699 117.921194,20.5943538 117.943414,20.422158 C117.966012,20.2507175 118.03644,20.0524657 118.156206,19.828158 C118.364479,19.4248573 118.945986,19.2228294 119.899973,19.2228294 L124.730544,19.2228294 C126.041947,19.2228294 127.31644,19.7012769 128.554025,20.6577944 C129.150219,21.1215147 129.64209,21.7491231 130.030012,22.5413748 C130.417181,23.3336266 130.611518,24.2153748 130.611518,25.1866196 C130.611518,26.8761021 130.052232,28.2661301 128.934414,29.3570811 C129.262077,30.1493329 129.769012,31.3226056 130.454843,32.8772769 Z" id="Fill-5" fill="#FFFFFF"></path>
                        <path d="M150.893214,19.2229804 C151.235942,19.2229804 151.493175,19.2339315 151.664916,19.2565888 C151.835903,19.2788685 152.03024,19.3498615 152.246422,19.4691902 C152.462227,19.5892741 152.615136,19.7909245 152.704773,20.0748965 C152.794032,20.3588685 152.838851,20.7402671 152.838851,21.2183371 C152.838851,21.6967846 152.794032,22.0781832 152.704773,22.3617776 C152.615136,22.6457497 152.458461,22.8440014 152.235123,22.9561552 C152.011409,23.0683091 151.813682,23.1351483 151.642318,23.1578056 C151.470955,23.1800853 151.206188,23.191414 150.848773,23.191414 L144.005903,23.191414 L144.005903,25.4560154 L148.411266,25.4560154 C148.768682,25.4560154 149.033825,25.4669664 149.205188,25.4896238 C149.376175,25.5119035 149.573903,25.5828965 149.797617,25.7022252 C150.185162,25.9265329 150.379123,26.5171343 150.379123,27.4740294 C150.379123,28.5200434 150.095526,29.1408545 149.529461,29.3345748 C149.290682,29.4097217 148.910292,29.4467287 148.389045,29.4467287 L144.005903,29.4467287 L144.005903,33.684407 C144.005903,34.0427706 143.994981,34.3044629 143.972383,34.4691063 C143.949786,34.6337497 143.878981,34.8274699 143.760344,35.0517776 C143.550942,35.4554559 142.969812,35.6574839 142.015825,35.6574839 C140.972201,35.6574839 140.360942,35.3738895 140.182422,34.8055678 C140.092786,34.5665329 140.047968,34.1851343 140.047968,33.6617497 L140.047968,21.1960573 C140.047968,20.4336378 140.189578,19.914407 140.472799,19.6376098 C140.756019,19.3611902 141.292708,19.2229804 142.082864,19.2229804 L150.893214,19.2229804 Z" id="Fill-7" fill="#FFFFFF"></path>
                        <g id="Group-11" transform="translate(161.948052, 18.881119)">
                            <mask id="mask-2" fill="white">
                                <use xlink:href="#path-1"></use>
                            </mask>
                            <g id="Clip-10"></g>
                            <path d="M0.617888312,14.4669021 C0.229966234,13.9884545 0.0363818182,13.5587203 0.0363818182,13.1776993 C0.0363818182,12.7963007 0.356888312,12.2917972 0.997901299,11.6641888 C1.37038182,11.3054476 1.76545974,11.1260769 2.18313506,11.1260769 C2.60043377,11.1260769 3.18194026,11.4999231 3.92727792,12.2472378 C4.13592727,12.5013776 4.43383636,12.7441888 4.82175844,12.976049 C5.20892727,13.2079091 5.5670961,13.3234615 5.89513506,13.3234615 C7.28148571,13.3234615 7.97447273,12.7555175 7.97447273,11.6192517 C7.97447273,11.2756154 7.78465455,10.9878671 7.40464156,10.7563846 C7.02462857,10.5249021 6.55083636,10.3564825 5.98439481,10.2518811 C5.41795325,10.1476573 4.80669351,9.97923776 4.15099221,9.74737762 C3.49491429,9.5158951 2.88365455,9.24287413 2.31721299,8.92869231 C1.75077143,8.61488811 1.27735584,8.11831469 0.897342857,7.43783916 C0.516953247,6.75774126 0.327135065,5.93943357 0.327135065,4.98291608 C0.327135065,3.66765734 0.814862338,2.52044056 1.79182338,1.54126573 C2.76803117,0.562468531 4.09826494,0.0726923077 5.78327792,0.0726923077 C6.67775844,0.0726923077 7.4939013,0.188244755 8.23208312,0.420104895 C8.96988831,0.651965035 9.48021299,0.887601399 9.76343377,1.12663636 L10.3227195,1.55259441 C10.7844597,1.9861049 11.0157065,2.3523986 11.0157065,2.6510979 C11.0157065,2.95017483 10.837187,3.36102797 10.4793948,3.88441259 C9.97245974,4.63172727 9.45045974,5.0051958 8.91377143,5.0051958 C8.6007974,5.0051958 8.21287532,4.85603497 7.75075844,4.55695804 C7.70631688,4.52712587 7.62044675,4.45235664 7.4939013,4.33265035 C7.36697922,4.21332168 7.25135584,4.11627273 7.14740779,4.04112587 C6.83443377,3.84702797 6.43521299,3.7496014 5.95087532,3.7496014 C5.46653766,3.7496014 5.06392727,3.86553147 4.74342078,4.09701399 C4.42291429,4.32887413 4.26284935,4.65023077 4.26284935,5.06146154 C4.26284935,5.47269231 4.45304416,5.80537762 4.83268052,6.05876224 C5.21307013,6.31327972 5.68610909,6.48472028 6.25292727,6.57497203 C6.81936883,6.66446853 7.43778442,6.80267832 8.10892727,6.98922378 C8.77969351,7.17652448 9.39810909,7.40423077 9.96492727,7.67347552 C10.5309922,7.94234266 11.0047844,8.40983916 11.3847974,9.07483217 C11.765187,9.73982517 11.9553818,10.5581329 11.9553818,11.5297552 C11.9553818,12.5013776 11.7610442,13.3570699 11.3738753,14.0972098 C10.9855766,14.8365944 10.4793948,15.4083147 9.85307013,15.8123706 C8.64523896,16.6046224 7.35605714,17.0003706 5.98439481,17.0003706 C5.28387532,17.0003706 4.62064156,16.9138951 3.99431688,16.7424545 C3.36836883,16.5706364 2.86143377,16.358035 2.47388831,16.1035175 C1.68335584,15.6250699 1.13197922,15.1617273 0.819005195,14.7134895 L0.617888312,14.4669021 Z" id="Fill-9" fill="#FFFFFF" mask="url(#mask-2)"></path>
                        </g>
                        <g id="Group-14">
                            <mask id="mask-4" fill="white">
                                <use xlink:href="#path-3"></use>
                            </mask>
                            <g id="Clip-13"></g>
                            <path d="M19.1669662,0.165587413 L34.498174,0.165587413 C45.0839273,0.165587413 53.6652909,8.76971329 53.6652909,19.3835455 L53.6652909,34.7554196 C53.6652909,45.3688741 45.0839273,53.973 34.498174,53.973 L19.1669662,53.973 C8.58158961,53.973 -0.000150649351,45.3688741 -0.000150649351,34.7554196 L-0.000150649351,19.3835455 C-0.000150649351,8.76971329 8.58158961,0.165587413 19.1669662,0.165587413" id="Fill-12" fill="#FFB91D" mask="url(#mask-4)"></path>
                        </g>
                    </g>
                    <g id="Group-28">
                        <g id="Group-18">
                            <mask id="mask-6" fill="white">
                                <use xlink:href="#path-5"></use>
                            </mask>
                            <g id="Clip-17"></g>
                            <polygon id="Fill-16" fill="#FFFFFF" mask="url(#mask-6)" points="47.585593 58.5314685 21.4439287 32.3901818 21.4439287 0.165398601 25.2201524 0.165398601 25.2201524 30.8260699 43.8093692 49.4145315 43.8093692 24.9714126 53.8076769 24.9714126 53.8076769 28.7476364 47.585593 28.7476364"></polygon>
                        </g>
                        <mask id="mask-8" fill="white">
                            <use xlink:href="#path-7"></use>
                        </mask>
                        <g id="Clip-20"></g>
                        <polygon id="Fill-19" fill="#FFFFFF" mask="url(#mask-8)" points="0 8.94511888 32.0291748 8.94511888 32.0291748 5.1688951 0 5.1688951"></polygon>
                        <path d="M47.6077217,26.8594867 L43.8314979,26.8594867 L43.8314979,14.6097944 C43.8314979,11.4861021 41.2904769,8.94545874 38.1671622,8.94545874 L15.2160294,8.94545874 L15.2160294,5.16923497 L38.1671622,5.16923497 C43.3726867,5.16923497 47.6077217,9.40389231 47.6077217,14.6097944 L47.6077217,26.8594867 Z" id="Fill-21" fill="#FFFFFF" mask="url(#mask-8)"></path>
                        <path d="M20.688835,53.9730755 L16.9126112,53.9730755 L16.9126112,44.7681524 L5.73121259,44.7681524 L5.73121259,25.5932434 C5.73121259,20.3877189 9.96586993,16.1526839 15.171772,16.1526839 L23.3321916,16.1526839 L23.3321916,19.9289077 L15.171772,19.9289077 C12.0480797,19.9289077 9.50743636,22.469551 9.50743636,25.5932434 L9.50743636,40.9919287 L20.688835,40.9919287 L20.688835,53.9730755 Z" id="Fill-22" fill="#FFFFFF" mask="url(#mask-8)"></path>
                        <path d="M20.8274979,13.5936503 L32.9801413,13.5936503 C37.0301413,13.5936503 40.3135678,16.871035 40.3135678,20.9134825 L40.3135678,26.7568112 C40.3135678,30.7996364 37.0301413,34.0766434 32.9801413,34.0766434 L20.8274979,34.0766434 C16.7774979,34.0766434 13.4940713,30.7996364 13.4940713,26.7568112 L13.4940713,20.9134825 C13.4940713,16.871035 16.7774979,13.5936503 20.8274979,13.5936503" id="Fill-23" fill="#444444" mask="url(#mask-8)"></path>
                        <path d="M21.0823175,25.7144601 C22.1200238,25.7144601 22.9613664,24.8727399 22.9613664,23.8350336 C22.9613664,22.7973273 22.1200238,21.9563622 21.0823175,21.9563622 C20.0446112,21.9563622 19.2028909,22.7973273 19.2028909,23.8350336 C19.2028909,24.8727399 20.0446112,25.7144601 21.0823175,25.7144601" id="Fill-24" fill="#FFFFFF" mask="url(#mask-8)"></path>
                        <path d="M32.7251706,25.7144601 C33.7632545,25.7144601 34.6045972,24.8727399 34.6045972,23.8350336 C34.6045972,22.7973273 33.7632545,21.9563622 32.7251706,21.9563622 C31.6874643,21.9563622 30.8461217,22.7973273 30.8461217,23.8350336 C30.8461217,24.8727399 31.6874643,25.7144601 32.7251706,25.7144601" id="Fill-25" fill="#FFFFFF" mask="url(#mask-8)"></path>
                        <path d="M26.9037441,25.7144601 C27.9414503,25.7144601 28.7831706,24.8727399 28.7831706,23.8350336 C28.7831706,22.7973273 27.9414503,21.9563622 26.9037441,21.9563622 C25.8660378,21.9563622 25.0246951,22.7973273 25.0246951,23.8350336 C25.0246951,24.8727399 25.8660378,25.7144601 26.9037441,25.7144601" id="Fill-26" fill="#FFFFFF" mask="url(#mask-8)"></path>
                        <path d="M26.9037441,31.9769497 L19.9732406,31.9769497 L19.9732406,33.9726839 C24.2664294,34.8125161 24.6036462,40.4791175 25.2837441,41.7094112 C25.7146112,42.4888238 26.287842,42.7618448 26.9037441,42.7648657 C27.5196462,42.7618448 28.0928769,42.4888238 28.5237441,41.7094112 C29.203842,40.4791175 29.5414364,34.8125161 33.8342476,33.9726839 L33.8342476,31.9769497 L26.9037441,31.9769497 Z" id="Fill-27" fill="#444444" mask="url(#mask-8)"></path>
                    </g>
                </g>
            </g>
        </g>
    </g>
</svg>